REM DIRINDEX 1\2\5,1\2\6,1\2\7,1\2\8,1\3\9,1\3\10,1\3\11,1\4\12,1\4\13,1\4\14,1\4\15,1\4\16
REM DIRNAME folder01,folder02,folder03,folder04,folder05,folder06,folder07,folder08,folder09,folder10,folder11,folder12,folder13,folder14,folder15,folder16
TITLE ""
FILE "1200_2_sec02_0400_0413.mp3" MP3
  TRACK 01 AUDIO
    TITLE "0:"
    INDEX 01 00:00:00
  TRACK 02 AUDIO
    TITLE "10:cjc034_00819"
    INDEX 01 00:00:15
  TRACK 03 AUDIO
    TITLE "0:"
    INDEX 01 00:01:36
  TRACK 04 AUDIO
    TITLE "9:cjc034_00820"
    INDEX 01 00:01:38
  TRACK 05 AUDIO
    TITLE "0:"
    INDEX 01 00:02:57
  TRACK 06 AUDIO
    TITLE "10:cjc034_00821"
    INDEX 01 00:03:41
  TRACK 07 AUDIO
    TITLE "0:"
    INDEX 01 00:04:52
  TRACK 08 AUDIO
    TITLE "9:cjc034_00822"
    INDEX 01 00:04:56
  TRACK 09 AUDIO
    TITLE "0:"
    INDEX 01 00:05:65
  TRACK 10 AUDIO
    TITLE "11:cjc034_00823"
    INDEX 01 00:07:37
  TRACK 11 AUDIO
    TITLE "0:"
    INDEX 01 00:09:04
  TRACK 12 AUDIO
    TITLE "10:cjc034_00824"
    INDEX 01 00:10:06
  TRACK 13 AUDIO
    TITLE "0:"
    INDEX 01 00:11:13
  TRACK 14 AUDIO
    TITLE "9:cjc034_00825"
    INDEX 01 00:11:19
  TRACK 15 AUDIO
    TITLE "0:"
    INDEX 01 00:12:36
  TRACK 16 AUDIO
    TITLE "10:cjc034_00826"
    INDEX 01 00:13:20
  TRACK 17 AUDIO
    TITLE "0:"
    INDEX 01 00:14:39
  TRACK 18 AUDIO
    TITLE "9:cjc034_00827"
    INDEX 01 00:14:43
  TRACK 19 AUDIO
    TITLE "0:"
    INDEX 01 00:15:66
  TRACK 20 AUDIO
    TITLE "10:cjc034_00828"
    INDEX 01 00:16:51
  TRACK 21 AUDIO
    TITLE "0:"
    INDEX 01 00:18:60
  TRACK 22 AUDIO
    TITLE "9:cjc034_00829"
    INDEX 01 00:18:68
  TRACK 23 AUDIO
    TITLE "0:"
    INDEX 01 00:19:71
  TRACK 24 AUDIO
    TITLE "10:cjc034_00830"
    INDEX 01 00:20:53
  TRACK 25 AUDIO
    TITLE "0:"
    INDEX 01 00:21:64
  TRACK 26 AUDIO
    TITLE "9:cjc034_00831"
    INDEX 01 00:21:68
  TRACK 27 AUDIO
    TITLE "0:"
    INDEX 01 00:22:60
  TRACK 28 AUDIO
    TITLE "10:cjc034_00832"
    INDEX 01 00:23:46
  TRACK 29 AUDIO
    TITLE "0:"
    INDEX 01 00:24:43
  TRACK 30 AUDIO
    TITLE "9:cjc034_00833"
    INDEX 01 00:24:51
  TRACK 31 AUDIO
    TITLE "0:"
    INDEX 01 00:25:46
  TRACK 32 AUDIO
    TITLE "10:cjc034_00834"
    INDEX 01 00:26:28
  TRACK 33 AUDIO
    TITLE "0:"
    INDEX 01 00:28:33
  TRACK 34 AUDIO
    TITLE "9:cjc034_00835"
    INDEX 01 00:28:37
  TRACK 35 AUDIO
    TITLE "0:"
    INDEX 01 00:29:38
  TRACK 36 AUDIO
    TITLE "10:cjc034_00836"
    INDEX 01 00:30:20
  TRACK 37 AUDIO
    TITLE "0:"
    INDEX 01 00:31:27
  TRACK 38 AUDIO
    TITLE "9:cjc034_00837"
    INDEX 01 00:31:31
  TRACK 39 AUDIO
    TITLE "0:"
    INDEX 01 00:32:43
  TRACK 40 AUDIO
    TITLE "10:cjc034_00838"
    INDEX 01 00:33:28
  TRACK 41 AUDIO
    TITLE "0:"
    INDEX 01 00:34:43
  TRACK 42 AUDIO
    TITLE "9:cjc034_00839"
    INDEX 01 00:34:47
  TRACK 43 AUDIO
    TITLE "0:"
    INDEX 01 00:35:63
  TRACK 44 AUDIO
    TITLE "10:cjc034_00840"
    INDEX 01 00:36:50
  TRACK 45 AUDIO
    TITLE "0:"
    INDEX 01 00:37:48
  TRACK 46 AUDIO
    TITLE "9:cjc034_00841"
    INDEX 01 00:37:54
  TRACK 47 AUDIO
    TITLE "0:"
    INDEX 01 00:38:63
  TRACK 48 AUDIO
    TITLE "10:cjc034_00842"
    INDEX 01 00:39:47
  TRACK 49 AUDIO
    TITLE "0:"
    INDEX 01 00:41:34
  TRACK 50 AUDIO
    TITLE "9:cjc034_00843"
    INDEX 01 00:41:38
  TRACK 51 AUDIO
    TITLE "0:"
    INDEX 01 00:42:43
  TRACK 52 AUDIO
    TITLE "10:cjc034_00844"
    INDEX 01 00:43:27
  TRACK 53 AUDIO
    TITLE "0:"
    INDEX 01 00:45:35
  TRACK 54 AUDIO
    TITLE "9:cjc034_00845"
    INDEX 01 00:45:37
  TRACK 55 AUDIO
    TITLE "0:"
    INDEX 01 00:46:45
  TRACK 56 AUDIO
    TITLE "10:cjc034_00846"
    INDEX 01 00:47:28
  TRACK 57 AUDIO
    TITLE "0:"
    INDEX 01 00:49:12
  TRACK 58 AUDIO
    TITLE "9:cjc034_00847"
    INDEX 01 00:49:16
  TRACK 59 AUDIO
    TITLE "0:"
    INDEX 01 00:50:54
